<?xml version="1.0" encoding="UTF-8"?>
<!-- Generator: Blender, SVG Export for Grease Pencil - v1.0 -->
<!DOCTYPE svg PUBLIC "-//W3C//DTD SVG 1.1//EN" "http://www.w3.org/Graphics/SVG/1.1/DTD/svg11.dtd">
<svg version="1.0" x="0px" y="0px" xmlns="http://www.w3.org/2000/svg" width="1153px" height="303px" viewBox="0 0 1153 303">
	<g id="blender_frame_1">
		<g id="blender_object_minus_gp">
			<!--Layer: minus_mh_001_Fills-->
			<g id="minus_mh_001_Fills">
				<polygon fill="#FEFEFE" stroke="none" fill-opacity="1" points="435.249969,293.499878 718.749878,293.499878 718.749878,10.000000 435.249969,10.000000" />
				<polygon fill="#FEFEFE" stroke="none" fill-opacity="1" points="718.749878,10.000000 718.749878,293.499878 1037.567139,293.499878 1090.783447,279.240601 1129.740601,240.283569 1143.999756,187.067261 1143.999756,116.432617 1129.740601,63.216309 1090.783447,24.259216 1037.567139,10.000000" />
				<polygon fill="#FEFEFE" stroke="none" fill-opacity="1" points="435.249969,293.499878 435.249969,10.000000 116.432648,10.000000 63.216339,24.259216 24.259277,63.216309 10.000000,116.432617 10.000000,187.067261 24.259277,240.283569 63.216339,279.240601 116.432648,293.499878" />
			</g>
			<!--Layer: minus_mh_001_Lines-->
			<g id="minus_mh_001_Lines">
				<polygon fill="#FEFEFE" stroke="none" fill-opacity="1" points="435.249969,10.000000 435.249969,293.499878" />
				<polygon fill="#FEFEFE" stroke="none" fill-opacity="1" points="435.249969,293.499878 718.749878,293.499878 1037.567139,293.499878 1090.783447,279.240601 1129.740601,240.283569 1143.999756,187.067261 1143.999756,116.432617 1129.740601,63.216309 1090.783447,24.259216 1037.567139,10.000000 718.749878,10.000000 435.249969,10.000000 116.432648,10.000000 63.216339,24.259216 24.259277,63.216309 10.000000,116.432617 10.000000,187.067261 24.259277,240.283569 63.216339,279.240601 116.432648,293.499878 435.249969,293.499878" />
				<polygon fill="#FEFEFE" stroke="none" fill-opacity="1" points="718.749878,293.499878 718.749878,10.000000" />
			</g>
		</g>
	</g>
</svg>
