<?xml version="1.0" encoding="UTF-8"?>
<!-- Generator: Blender, SVG Export for Grease Pencil - v1.0 -->
<!DOCTYPE svg PUBLIC "-//W3C//DTD SVG 1.1//EN" "http://www.w3.org/Graphics/SVG/1.1/DTD/svg11.dtd">
<svg version="1.0" x="0px" y="0px" xmlns="http://www.w3.org/2000/svg" width="1153px" height="1154px" viewBox="0 0 1153 1154">
	<g id="blender_frame_1">
		<g id="blender_object_plus_gp">
			<!--Layer: plus_001_Fills-->
			<g id="plus_001_Fills">
				<polygon fill="#FEFEFE" stroke="none" fill-opacity="1" points="435.249969,718.749939 718.749878,718.749939 718.749878,435.250061 435.249969,435.250061" />
				<polygon fill="#FEFEFE" stroke="none" fill-opacity="1" points="718.749878,435.250061 718.749878,718.749939 1037.567139,718.749939 1090.783447,704.490662 1129.740601,665.533630 1143.999756,612.317322 1143.999756,541.682678 1129.740601,488.466370 1090.783447,449.509277 1037.567139,435.250061" />
				<polygon fill="#FEFEFE" stroke="none" fill-opacity="1" points="435.249969,435.250061 718.749878,435.250061 718.749878,116.432739 704.490479,63.216431 665.533447,24.259399 612.317139,10.000000 541.682617,10.000000 488.466278,24.259399 449.509247,63.216431 435.249969,116.432739" />
				<polygon fill="#FEFEFE" stroke="none" fill-opacity="1" points="718.749878,718.749939 435.249969,718.749939 435.249969,1037.567383 449.509247,1090.783691 488.466278,1129.740723 541.682617,1144.000000 612.317139,1144.000000 665.533447,1129.740723 704.490479,1090.783691 718.749878,1037.567383" />
				<polygon fill="#FEFEFE" stroke="none" fill-opacity="1" points="435.249969,718.749939 435.249969,435.250061 116.432648,435.250061 63.216339,449.509277 24.259277,488.466370 10.000000,541.682678 10.000000,612.317322 24.259277,665.533630 63.216339,704.490662 116.432648,718.749939" />
			</g>
		</g>
	</g>
</svg>
